<svg width="512" height="512" viewBox="-100 -100 200 200" xmlns="http://www.w3.org/2000/svg" role="img" aria-label="Darts icon">
<title>Darts</title>
<desc>Classic 20-segment dartboard mark in black, cream, green and red.</desc>

<circle cx="0" cy="0" r="92" fill="#1A1A1A"/>

<g>
<path d="M -12.21 -76.96 A 78 78 0 0 1 12.21 -76.96 L 3.13 -19.74 A 20 20 0 0 0 -3.13 -19.74 Z" fill="#E8DCC0"/>
<path d="M 12.21 -76.96 A 78 78 0 0 1 35.42 -69.51 L 9.08 -17.83 A 20 20 0 0 0 3.13 -19.74 Z" fill="#1A1A1A"/>
<path d="M 35.42 -69.51 A 78 78 0 0 1 55.15 -55.15 L 14.14 -14.14 A 20 20 0 0 0 9.08 -17.83 Z" fill="#E8DCC0"/>
<path d="M 55.15 -55.15 A 78 78 0 0 1 69.51 -35.42 L 17.83 -9.08 A 20 20 0 0 0 14.14 -14.14 Z" fill="#1A1A1A"/>
<path d="M 69.51 -35.42 A 78 78 0 0 1 76.96 -12.21 L 19.74 -3.13 A 20 20 0 0 0 17.83 -9.08 Z" fill="#E8DCC0"/>
<path d="M 76.96 -12.21 A 78 78 0 0 1 76.96 12.21 L 19.74 3.13 A 20 20 0 0 0 19.74 -3.13 Z" fill="#1A1A1A"/>
<path d="M 76.96 12.21 A 78 78 0 0 1 69.51 35.42 L 17.83 9.08 A 20 20 0 0 0 19.74 3.13 Z" fill="#E8DCC0"/>
<path d="M 69.51 35.42 A 78 78 0 0 1 55.15 55.15 L 14.14 14.14 A 20 20 0 0 0 17.83 9.08 Z" fill="#1A1A1A"/>
<path d="M 55.15 55.15 A 78 78 0 0 1 35.42 69.51 L 9.08 17.83 A 20 20 0 0 0 14.14 14.14 Z" fill="#E8DCC0"/>
<path d="M 35.42 69.51 A 78 78 0 0 1 12.21 76.96 L 3.13 19.74 A 20 20 0 0 0 9.08 17.83 Z" fill="#1A1A1A"/>
<path d="M 12.21 76.96 A 78 78 0 0 1 -12.21 76.96 L -3.13 19.74 A 20 20 0 0 0 3.13 19.74 Z" fill="#E8DCC0"/>
<path d="M -12.21 76.96 A 78 78 0 0 1 -35.42 69.51 L -9.08 17.83 A 20 20 0 0 0 -3.13 19.74 Z" fill="#1A1A1A"/>
<path d="M -35.42 69.51 A 78 78 0 0 1 -55.15 55.15 L -14.14 14.14 A 20 20 0 0 0 -9.08 17.83 Z" fill="#E8DCC0"/>
<path d="M -55.15 55.15 A 78 78 0 0 1 -69.51 35.42 L -17.83 9.08 A 20 20 0 0 0 -14.14 14.14 Z" fill="#1A1A1A"/>
<path d="M -69.51 35.42 A 78 78 0 0 1 -76.96 12.21 L -19.74 3.13 A 20 20 0 0 0 -17.83 9.08 Z" fill="#E8DCC0"/>
<path d="M -76.96 12.21 A 78 78 0 0 1 -76.96 -12.21 L -19.74 -3.13 A 20 20 0 0 0 -19.74 3.13 Z" fill="#1A1A1A"/>
<path d="M -76.96 -12.21 A 78 78 0 0 1 -69.51 -35.42 L -17.83 -9.08 A 20 20 0 0 0 -19.74 -3.13 Z" fill="#E8DCC0"/>
<path d="M -69.51 -35.42 A 78 78 0 0 1 -55.15 -55.15 L -14.14 -14.14 A 20 20 0 0 0 -17.83 -9.08 Z" fill="#1A1A1A"/>
<path d="M -55.15 -55.15 A 78 78 0 0 1 -35.42 -69.51 L -9.08 -17.83 A 20 20 0 0 0 -14.14 -14.14 Z" fill="#E8DCC0"/>
<path d="M -35.42 -69.51 A 78 78 0 0 1 -12.21 -76.96 L -3.13 -19.74 A 20 20 0 0 0 -9.08 -17.83 Z" fill="#1A1A1A"/>
</g>

<g>
<path d="M -7.21 -45.43 A 46 46 0 0 1 7.21 -45.43 L 8.15 -51.36 A 52 52 0 0 0 -8.15 -51.36 Z" fill="#2F855A"/>
<path d="M 7.21 -45.43 A 46 46 0 0 1 20.89 -41.00 L 23.61 -46.34 A 52 52 0 0 0 8.15 -51.36 Z" fill="#C53030"/>
<path d="M 20.89 -41.00 A 46 46 0 0 1 32.53 -32.53 L 36.77 -36.77 A 52 52 0 0 0 23.61 -46.34 Z" fill="#2F855A"/>
<path d="M 32.53 -32.53 A 46 46 0 0 1 41.00 -20.89 L 46.34 -23.61 A 52 52 0 0 0 36.77 -36.77 Z" fill="#C53030"/>
<path d="M 41.00 -20.89 A 46 46 0 0 1 45.43 -7.21 L 51.36 -8.15 A 52 52 0 0 0 46.34 -23.61 Z" fill="#2F855A"/>
<path d="M 45.43 -7.21 A 46 46 0 0 1 45.43 7.21 L 51.36 8.15 A 52 52 0 0 0 51.36 -8.15 Z" fill="#C53030"/>
<path d="M 45.43 7.21 A 46 46 0 0 1 41.00 20.89 L 46.34 23.61 A 52 52 0 0 0 51.36 8.15 Z" fill="#2F855A"/>
<path d="M 41.00 20.89 A 46 46 0 0 1 32.53 32.53 L 36.77 36.77 A 52 52 0 0 0 46.34 23.61 Z" fill="#C53030"/>
<path d="M 32.53 32.53 A 46 46 0 0 1 20.89 41.00 L 23.61 46.34 A 52 52 0 0 0 36.77 36.77 Z" fill="#2F855A"/>
<path d="M 20.89 41.00 A 46 46 0 0 1 7.21 45.43 L 8.15 51.36 A 52 52 0 0 0 23.61 46.34 Z" fill="#C53030"/>
<path d="M 7.21 45.43 A 46 46 0 0 1 -7.21 45.43 L -8.15 51.36 A 52 52 0 0 0 8.15 51.36 Z" fill="#2F855A"/>
<path d="M -7.21 45.43 A 46 46 0 0 1 -20.89 41.00 L -23.61 46.34 A 52 52 0 0 0 -8.15 51.36 Z" fill="#C53030"/>
<path d="M -20.89 41.00 A 46 46 0 0 1 -32.53 32.53 L -36.77 36.77 A 52 52 0 0 0 -23.61 46.34 Z" fill="#2F855A"/>
<path d="M -32.53 32.53 A 46 46 0 0 1 -41.00 20.89 L -46.34 23.61 A 52 52 0 0 0 -36.77 36.77 Z" fill="#C53030"/>
<path d="M -41.00 20.89 A 46 46 0 0 1 -45.43 7.21 L -51.36 8.15 A 52 52 0 0 0 -46.34 23.61 Z" fill="#2F855A"/>
<path d="M -45.43 7.21 A 46 46 0 0 1 -45.43 -7.21 L -51.36 -8.15 A 52 52 0 0 0 -51.36 8.15 Z" fill="#C53030"/>
<path d="M -45.43 -7.21 A 46 46 0 0 1 -41.00 -20.89 L -46.34 -23.61 A 52 52 0 0 0 -51.36 -8.15 Z" fill="#2F855A"/>
<path d="M -41.00 -20.89 A 46 46 0 0 1 -32.53 -32.53 L -36.77 -36.77 A 52 52 0 0 0 -46.34 -23.61 Z" fill="#C53030"/>
<path d="M -32.53 -32.53 A 46 46 0 0 1 -20.89 -41.00 L -23.61 -46.34 A 52 52 0 0 0 -36.77 -36.77 Z" fill="#2F855A"/>
<path d="M -20.89 -41.00 A 46 46 0 0 1 -7.21 -45.43 L -8.15 -51.36 A 52 52 0 0 0 -23.61 -46.34 Z" fill="#C53030"/>
</g>

<g>
<path d="M -11.27 -71.12 A 72 72 0 0 1 11.27 -71.12 L 12.21 -76.96 A 78 78 0 0 0 -12.21 -76.96 Z" fill="#2F855A"/>
<path d="M 11.27 -71.12 A 72 72 0 0 1 32.69 -64.16 L 35.42 -69.51 A 78 78 0 0 0 12.21 -76.96 Z" fill="#C53030"/>
<path d="M 32.69 -64.16 A 72 72 0 0 1 50.91 -50.91 L 55.15 -55.15 A 78 78 0 0 0 35.42 -69.51 Z" fill="#2F855A"/>
<path d="M 50.91 -50.91 A 72 72 0 0 1 64.16 -32.69 L 69.51 -35.42 A 78 78 0 0 0 55.15 -55.15 Z" fill="#C53030"/>
<path d="M 64.16 -32.69 A 72 72 0 0 1 71.12 -11.27 L 76.96 -12.21 A 78 78 0 0 0 69.51 -35.42 Z" fill="#2F855A"/>
<path d="M 71.12 -11.27 A 72 72 0 0 1 71.12 11.27 L 76.96 12.21 A 78 78 0 0 0 76.96 -12.21 Z" fill="#C53030"/>
<path d="M 71.12 11.27 A 72 72 0 0 1 64.16 32.69 L 69.51 35.42 A 78 78 0 0 0 76.96 12.21 Z" fill="#2F855A"/>
<path d="M 64.16 32.69 A 72 72 0 0 1 50.91 50.91 L 55.15 55.15 A 78 78 0 0 0 69.51 35.42 Z" fill="#C53030"/>
<path d="M 50.91 50.91 A 72 72 0 0 1 32.69 64.16 L 35.42 69.51 A 78 78 0 0 0 55.15 55.15 Z" fill="#2F855A"/>
<path d="M 32.69 64.16 A 72 72 0 0 1 11.27 71.12 L 12.21 76.96 A 78 78 0 0 0 35.42 69.51 Z" fill="#C53030"/>
<path d="M 11.27 71.12 A 72 72 0 0 1 -11.27 71.12 L -12.21 76.96 A 78 78 0 0 0 12.21 76.96 Z" fill="#2F855A"/>
<path d="M -11.27 71.12 A 72 72 0 0 1 -32.69 64.16 L -35.42 69.51 A 78 78 0 0 0 -12.21 76.96 Z" fill="#C53030"/>
<path d="M -32.69 64.16 A 72 72 0 0 1 -50.91 50.91 L -55.15 55.15 A 78 78 0 0 0 -35.42 69.51 Z" fill="#2F855A"/>
<path d="M -50.91 50.91 A 72 72 0 0 1 -64.16 32.69 L -69.51 35.42 A 78 78 0 0 0 -55.15 55.15 Z" fill="#C53030"/>
<path d="M -64.16 32.69 A 72 72 0 0 1 -71.12 11.27 L -76.96 12.21 A 78 78 0 0 0 -69.51 35.42 Z" fill="#2F855A"/>
<path d="M -71.12 11.27 A 72 72 0 0 1 -71.12 -11.27 L -76.96 -12.21 A 78 78 0 0 0 -76.96 12.21 Z" fill="#C53030"/>
<path d="M -71.12 -11.27 A 72 72 0 0 1 -64.16 -32.69 L -69.51 -35.42 A 78 78 0 0 0 -76.96 -12.21 Z" fill="#2F855A"/>
<path d="M -64.16 -32.69 A 72 72 0 0 1 -50.91 -50.91 L -55.15 -55.15 A 78 78 0 0 0 -69.51 -35.42 Z" fill="#C53030"/>
<path d="M -50.91 -50.91 A 72 72 0 0 1 -32.69 -64.16 L -35.42 -69.51 A 78 78 0 0 0 -55.15 -55.15 Z" fill="#2F855A"/>
<path d="M -32.69 -64.16 A 72 72 0 0 1 -11.27 -71.12 L -12.21 -76.96 A 78 78 0 0 0 -35.42 -69.51 Z" fill="#C53030"/>
</g>

<circle cx="0" cy="0" r="16" fill="#2F855A"/>
<circle cx="0" cy="0" r="7" fill="#C53030"/>

<g stroke="#3D3D3D" stroke-width="0.5" stroke-linecap="round" opacity="0.6">
<line x1="0" y1="-78" x2="0" y2="-20"/>
<line x1="76.96" y1="-12.21" x2="19.74" y2="-3.13"/>
<line x1="76.96" y1="12.21" x2="19.74" y2="3.13"/>
<line x1="0" y1="78" x2="0" y2="20"/>
<line x1="-76.96" y1="12.21" x2="-19.74" y2="3.13"/>
<line x1="-76.96" y1="-12.21" x2="-19.74" y2="-3.13"/>
</g>
</svg>
